<?xml version="1.0" encoding="UTF-8"?>
<svg width="752pt" height="752pt" version="1.1" viewBox="0 0 752 752" xmlns="http://www.w3.org/2000/svg">
 <defs>
  <clipPath id="a">
   <path d="m242 139.21h268v473.58h-268z"/>
  </clipPath>
 </defs>
 <g clip-path="url(#a)">
  <path d="m509.2 183.61v-29.598c0-8.1602-6.6367-14.801-14.801-14.801h-236.79c-8.1602 0-14.801 6.6367-14.801 14.801v29.598c0 8.1602 6.6367 14.801 14.801 14.801v207.19c-8.1602 0-14.801 6.6367-14.801 14.801v177.59c0 8.1602 6.6367 14.801 14.801 14.801h236.79c8.1602 0 14.801-6.6367 14.801-14.801v-177.6c0-8.1602-6.6367-14.801-14.801-14.801l0.003907-207.19c8.1602 0 14.797-6.6406 14.797-14.801zm-251.59-29.598h236.79v29.598h-236.79zm236.79 266.39v14.801h-236.79v-14.801zm-118.4-14.797h-14.801v-7.3984h14.801zm59.199 0h-14.801v-7.3984h14.801zm-177.59 192.39v-147.99h236.79v147.99zm221.99-192.39h-29.598v-14.801c0-4.0859-3.3086-7.3984-7.3984-7.3984h-29.598c-4.0938 0-7.3984 3.3164-7.3984 7.3984v14.801h-14.801v-14.801c0-4.0859-3.3086-7.3984-7.3984-7.3984h-29.598c-4.0938 0-7.3984 3.3164-7.3984 7.3984v14.801h-22.199v-16.855c4.4023-2.5664 7.3984-7.2891 7.3984-12.742 0-8.1602-6.6367-14.801-14.801-14.801-8.1602 0-14.801 6.6367-14.801 14.801 0 5.4531 2.9961 10.176 7.3984 12.742l-0.003906 16.855h-37l0.003906-207.19h207.19z"/>
 </g>
 <path d="m309.4 346.4h133.2c12.238 0 22.199-9.9609 22.199-22.199v-73.996c0-12.238-9.9609-22.199-22.199-22.199h-133.2c-12.238 0-22.199 9.9609-22.199 22.199v73.996c0 12.238 9.9609 22.199 22.199 22.199zm-7.3984-96.195c0-4.0781 3.3164-7.3984 7.3984-7.3984h133.2c4.0859 0 7.3984 3.3242 7.3984 7.3984v73.996c0 4.0781-3.3164 7.3984-7.3984 7.3984h-133.2c-4.0859 0-7.3984-3.3242-7.3984-7.3984z"/>
 <path d="m353.8 494.4h-14.801c-8.1602 0-14.801 6.6367-14.801 14.801v29.598c0 8.1602 6.6367 14.801 14.801 14.801h14.801c8.1602 0 14.801-6.6367 14.801-14.801v-29.598c0-8.1641-6.6367-14.801-14.801-14.801zm0 44.395h-14.801v-29.598h14.801z"/>
 <path d="m413 494.4h-14.801c-8.1602 0-14.801 6.6367-14.801 14.801v29.598c0 8.1602 6.6367 14.801 14.801 14.801h14.801c8.1602 0 14.801-6.6367 14.801-14.801v-29.598c0-8.1641-6.6406-14.801-14.801-14.801zm0 44.395h-14.801v-29.598h14.801z"/>
</svg>
